<svg id="visual" viewBox="0 0 900 600" width="900" height="600" xmlns="http://www.w3.org/2000/svg" xmlns:xlink="http://www.w3.org/1999/xlink" version="1.1"><rect x="0" y="0" width="900" height="600" fill="#000000"></rect><path d="M439 600L478 600L478 514L535 514L535 429L376 429L376 343L387 343L387 257L490 257L490 171L482 171L482 86L400 86L400 0L900 0L900 86L900 86L900 171L900 171L900 257L900 257L900 343L900 343L900 429L900 429L900 514L900 514L900 600L900 600Z" fill="#171717"></path><path d="M548 600L652 600L652 514L661 514L661 429L559 429L559 343L641 343L641 257L568 257L568 171L595 171L595 86L601 86L601 0L900 0L900 86L900 86L900 171L900 171L900 257L900 257L900 343L900 343L900 429L900 429L900 514L900 514L900 600L900 600Z" fill="#2b2a2b"></path><path d="M773 600L763 600L763 514L812 514L812 429L810 429L810 343L774 343L774 257L782 257L782 171L702 171L702 86L725 86L725 0L900 0L900 86L900 86L900 171L900 171L900 257L900 257L900 343L900 343L900 429L900 429L900 514L900 514L900 600L900 600Z" fill="#403e41"></path></svg>